<svg width="169" height="64" viewBox="0 0 169 64" fill="none" xmlns="http://www.w3.org/2000/svg">
<path d="M71.352 30V13.2H73.944V27.504H81.816V30H71.352ZM85.7192 30V13.2H92.5592C93.4712 13.2 94.2952 13.432 95.0312 13.896C95.7832 14.344 96.3832 14.96 96.8312 15.744C97.2792 16.528 97.5032 17.4 97.5032 18.36C97.5032 19.32 97.2792 20.192 96.8312 20.976C96.3832 21.76 95.7832 22.392 95.0312 22.872C94.2952 23.336 93.4712 23.568 92.5592 23.568H88.3112V30H85.7192ZM88.3112 21.072H92.5112C92.9432 21.072 93.3352 20.952 93.6872 20.712C94.0392 20.456 94.3192 20.128 94.5272 19.728C94.7512 19.312 94.8632 18.856 94.8632 18.36C94.8632 17.864 94.7512 17.416 94.5272 17.016C94.3192 16.616 94.0392 16.296 93.6872 16.056C93.3352 15.816 92.9432 15.696 92.5112 15.696H88.3112V21.072Z" fill="black"/>
<path d="M1.648 63V51.8H2.896V61.784H8.272V63H1.648ZM15.022 63.16C14.2327 63.16 13.502 63.0213 12.83 62.744C12.1687 62.456 11.5873 62.056 11.086 61.544C10.5953 61.032 10.2113 60.4293 9.934 59.736C9.66733 59.032 9.534 58.264 9.534 57.432C9.534 56.6 9.66733 55.8373 9.934 55.144C10.2113 54.44 10.5953 53.832 11.086 53.32C11.5873 52.7973 12.1687 52.3973 12.83 52.12C13.502 51.832 14.2327 51.688 15.022 51.688C15.822 51.688 16.5527 51.832 17.214 52.12C17.886 52.3973 18.4673 52.7973 18.958 53.32C19.4593 53.832 19.8433 54.44 20.11 55.144C20.3873 55.8373 20.526 56.6 20.526 57.432C20.526 58.2533 20.3873 59.016 20.11 59.72C19.8433 60.4133 19.4593 61.0213 18.958 61.544C18.4673 62.056 17.886 62.456 17.214 62.744C16.5527 63.0213 15.822 63.16 15.022 63.16ZM15.022 61.928C15.63 61.928 16.19 61.8213 16.702 61.608C17.2247 61.384 17.6727 61.0693 18.046 60.664C18.4193 60.2587 18.7073 59.784 18.91 59.24C19.1233 58.6853 19.23 58.0827 19.23 57.432C19.23 56.7707 19.1233 56.168 18.91 55.624C18.7073 55.0693 18.4193 54.5893 18.046 54.184C17.6727 53.7787 17.2247 53.464 16.702 53.24C16.19 53.016 15.63 52.904 15.022 52.904C14.414 52.904 13.8487 53.016 13.326 53.24C12.814 53.464 12.3713 53.7787 11.998 54.184C11.6247 54.5893 11.3367 55.0693 11.134 55.624C10.9313 56.168 10.83 56.7707 10.83 57.432C10.83 58.0827 10.9313 58.6853 11.134 59.24C11.3367 59.784 11.6247 60.2587 11.998 60.664C12.3713 61.0693 12.814 61.384 13.326 61.608C13.8487 61.8213 14.414 61.928 15.022 61.928ZM22.9605 63V51.8H24.1765L28.4805 58.792L27.9045 58.776L32.2565 51.8H33.3925V63H32.1445V57.88C32.1445 56.92 32.1605 56.056 32.1925 55.288C32.2245 54.52 32.2832 53.7573 32.3685 53L32.5925 53.448L28.5765 59.752H27.7125L23.8085 53.528L23.9845 53C24.0698 53.7147 24.1285 54.4507 24.1605 55.208C24.1925 55.9547 24.2085 56.8453 24.2085 57.88V63H22.9605ZM36.6949 63V51.8H41.2389C41.8895 51.8 42.4495 51.9173 42.9189 52.152C43.3989 52.376 43.7669 52.7013 44.0229 53.128C44.2789 53.544 44.4069 54.04 44.4069 54.616C44.4069 55.2347 44.2309 55.768 43.8789 56.216C43.5269 56.6533 43.0469 56.9573 42.4389 57.128L42.4069 56.824C42.9295 56.92 43.3829 57.1067 43.7669 57.384C44.1509 57.6507 44.4495 57.9813 44.6629 58.376C44.8869 58.7707 44.9989 59.2133 44.9989 59.704C44.9989 60.2053 44.9135 60.6587 44.7429 61.064C44.5722 61.4693 44.3269 61.816 44.0069 62.104C43.6975 62.392 43.3189 62.616 42.8709 62.776C42.4335 62.9253 41.9429 63 41.3989 63H36.6949ZM37.9429 61.784H41.3029C41.7829 61.784 42.1989 61.704 42.5509 61.544C42.9135 61.3733 43.1909 61.1333 43.3829 60.824C43.5855 60.5147 43.6869 60.1573 43.6869 59.752C43.6869 59.368 43.5802 59.032 43.3669 58.744C43.1642 58.456 42.8762 58.232 42.5029 58.072C42.1402 57.912 41.7135 57.832 41.2229 57.832H37.9429V61.784ZM37.9429 56.616H41.1429C41.5269 56.616 41.8682 56.5413 42.1669 56.392C42.4655 56.232 42.7002 56.0187 42.8709 55.752C43.0415 55.4747 43.1269 55.1653 43.1269 54.824C43.1269 54.28 42.9402 53.8427 42.5669 53.512C42.2042 53.1813 41.6922 53.016 41.0309 53.016H37.9429V56.616ZM46.1813 63L50.4693 51.8H51.8933L56.1493 63H54.7893L52.0533 55.736C51.9786 55.5333 51.8933 55.2987 51.7973 55.032C51.7119 54.7547 51.6159 54.472 51.5093 54.184C51.4133 53.8853 51.3173 53.5973 51.2213 53.32C51.1359 53.0427 51.0559 52.7973 50.9813 52.584H51.3013C51.2159 52.8507 51.1253 53.1227 51.0293 53.4C50.9439 53.6667 50.8533 53.9387 50.7573 54.216C50.6613 54.4827 50.5653 54.7493 50.4693 55.016C50.3733 55.2827 50.2773 55.5493 50.1813 55.816L47.4613 63H46.1813ZM48.0053 59.912L48.4693 58.696H53.7653L54.2773 59.912H48.0053ZM58.1949 63V51.8H62.5789C63.2295 51.8 63.8162 51.9547 64.3389 52.264C64.8722 52.5627 65.2935 52.9733 65.6029 53.496C65.9122 54.0187 66.0669 54.6107 66.0669 55.272C66.0669 55.8907 65.9175 56.4507 65.6189 56.952C65.3202 57.4533 64.9149 57.8533 64.4029 58.152C63.8909 58.44 63.3149 58.584 62.6749 58.584H59.4429V63H58.1949ZM65.0269 63L62.2109 58.072L63.4109 57.656L66.5149 63H65.0269ZM59.4429 57.368H62.7869C63.1815 57.368 63.5282 57.2773 63.8269 57.096C64.1255 56.9147 64.3602 56.6693 64.5309 56.36C64.7015 56.04 64.7869 55.6773 64.7869 55.272C64.7869 54.8347 64.6855 54.4453 64.4829 54.104C64.2802 53.7627 63.9975 53.496 63.6349 53.304C63.2829 53.112 62.8775 53.016 62.4189 53.016H59.4429V57.368ZM68.7574 63V51.8H72.9814C73.7494 51.8 74.448 51.9387 75.0774 52.216C75.7174 52.4827 76.272 52.8667 76.7414 53.368C77.2107 53.8693 77.5734 54.4613 77.8294 55.144C78.0854 55.8267 78.2134 56.5787 78.2134 57.4C78.2134 58.2213 78.0854 58.9787 77.8294 59.672C77.5734 60.3547 77.2107 60.9467 76.7414 61.448C76.2827 61.9387 75.7334 62.3227 75.0934 62.6C74.4534 62.8667 73.7494 63 72.9814 63H68.7574ZM70.0054 62.008L69.8614 61.784H72.9014C73.488 61.784 74.0267 61.6827 74.5174 61.48C75.0187 61.2667 75.4454 60.968 75.7974 60.584C76.16 60.1893 76.4374 59.7253 76.6294 59.192C76.832 58.6587 76.9334 58.0613 76.9334 57.4C76.9334 56.7387 76.832 56.1413 76.6294 55.608C76.4374 55.0747 76.16 54.616 75.7974 54.232C75.4347 53.8373 75.008 53.5387 74.5174 53.336C74.0267 53.1227 73.488 53.016 72.9014 53.016H69.8134L70.0054 52.824V62.008ZM85.1324 63V51.8H89.5644C90.151 51.8 90.679 51.944 91.1484 52.232C91.6177 52.52 91.991 52.92 92.2684 53.432C92.5457 53.9333 92.6844 54.4987 92.6844 55.128C92.6844 55.7893 92.5457 56.3813 92.2684 56.904C91.991 57.416 91.6177 57.8267 91.1484 58.136C90.679 58.4347 90.151 58.584 89.5644 58.584H86.3804V63H85.1324ZM86.3804 57.368H89.6284C89.959 57.368 90.2524 57.272 90.5084 57.08C90.775 56.8773 90.9884 56.6107 91.1484 56.28C91.3084 55.9387 91.3884 55.5493 91.3884 55.112C91.3884 54.7173 91.3084 54.3653 91.1484 54.056C90.9884 53.736 90.775 53.4853 90.5084 53.304C90.2524 53.112 89.959 53.016 89.6284 53.016H86.3804V57.368ZM95.0855 63V51.8H99.4695C100.12 51.8 100.707 51.9547 101.23 52.264C101.763 52.5627 102.184 52.9733 102.494 53.496C102.803 54.0187 102.958 54.6107 102.958 55.272C102.958 55.8907 102.808 56.4507 102.51 56.952C102.211 57.4533 101.806 57.8533 101.294 58.152C100.782 58.44 100.206 58.584 99.5655 58.584H96.3335V63H95.0855ZM101.918 63L99.1015 58.072L100.302 57.656L103.406 63H101.918ZM96.3335 57.368H99.6775C100.072 57.368 100.419 57.2773 100.718 57.096C101.016 56.9147 101.251 56.6693 101.422 56.36C101.592 56.04 101.678 55.6773 101.678 55.272C101.678 54.8347 101.576 54.4453 101.374 54.104C101.171 53.7627 100.888 53.496 100.526 53.304C100.174 53.112 99.7682 53.016 99.3095 53.016H96.3335V57.368ZM110.116 63.16C109.326 63.16 108.596 63.0213 107.924 62.744C107.262 62.456 106.681 62.056 106.18 61.544C105.689 61.032 105.305 60.4293 105.028 59.736C104.761 59.032 104.628 58.264 104.628 57.432C104.628 56.6 104.761 55.8373 105.028 55.144C105.305 54.44 105.689 53.832 106.18 53.32C106.681 52.7973 107.262 52.3973 107.924 52.12C108.596 51.832 109.326 51.688 110.116 51.688C110.916 51.688 111.646 51.832 112.308 52.12C112.98 52.3973 113.561 52.7973 114.052 53.32C114.553 53.832 114.937 54.44 115.204 55.144C115.481 55.8373 115.62 56.6 115.62 57.432C115.62 58.2533 115.481 59.016 115.204 59.72C114.937 60.4133 114.553 61.0213 114.052 61.544C113.561 62.056 112.98 62.456 112.308 62.744C111.646 63.0213 110.916 63.16 110.116 63.16ZM110.116 61.928C110.724 61.928 111.284 61.8213 111.796 61.608C112.318 61.384 112.766 61.0693 113.14 60.664C113.513 60.2587 113.801 59.784 114.004 59.24C114.217 58.6853 114.324 58.0827 114.324 57.432C114.324 56.7707 114.217 56.168 114.004 55.624C113.801 55.0693 113.513 54.5893 113.14 54.184C112.766 53.7787 112.318 53.464 111.796 53.24C111.284 53.016 110.724 52.904 110.116 52.904C109.508 52.904 108.942 53.016 108.42 53.24C107.908 53.464 107.465 53.7787 107.092 54.184C106.718 54.5893 106.43 55.0693 106.228 55.624C106.025 56.168 105.924 56.7707 105.924 57.432C105.924 58.0827 106.025 58.6853 106.228 59.24C106.43 59.784 106.718 60.2587 107.092 60.664C107.465 61.0693 107.908 61.384 108.42 61.608C108.942 61.8213 109.508 61.928 110.116 61.928ZM123.014 63.16C122.193 63.16 121.43 63.016 120.726 62.728C120.022 62.44 119.404 62.04 118.87 61.528C118.337 61.016 117.921 60.4133 117.622 59.72C117.334 59.016 117.19 58.2533 117.19 57.432C117.19 56.6107 117.334 55.8533 117.622 55.16C117.921 54.456 118.326 53.848 118.838 53.336C119.361 52.824 119.969 52.4293 120.662 52.152C121.366 51.864 122.118 51.72 122.918 51.72C123.484 51.72 124.038 51.8 124.582 51.96C125.137 52.12 125.638 52.344 126.086 52.632C126.534 52.92 126.897 53.2453 127.174 53.608L126.342 54.456C126.044 54.1467 125.708 53.88 125.334 53.656C124.961 53.432 124.566 53.256 124.15 53.128C123.745 53 123.34 52.936 122.934 52.936C122.305 52.936 121.718 53.048 121.174 53.272C120.641 53.496 120.172 53.8107 119.766 54.216C119.361 54.6107 119.046 55.0853 118.822 55.64C118.598 56.184 118.486 56.7813 118.486 57.432C118.486 58.0613 118.598 58.6533 118.822 59.208C119.057 59.752 119.382 60.232 119.798 60.648C120.225 61.0533 120.716 61.368 121.27 61.592C121.825 61.816 122.422 61.928 123.062 61.928C123.564 61.928 124.033 61.8533 124.47 61.704C124.918 61.5547 125.308 61.3467 125.638 61.08C125.969 60.8027 126.225 60.4827 126.406 60.12C126.588 59.7573 126.678 59.368 126.678 58.952V58.392L126.934 58.712H122.998V57.48H127.926C127.937 57.5653 127.948 57.6667 127.958 57.784C127.969 57.8907 127.974 58.0027 127.974 58.12C127.985 58.2267 127.99 58.328 127.99 58.424C127.99 59.1173 127.862 59.7573 127.606 60.344C127.35 60.92 126.993 61.4213 126.534 61.848C126.086 62.264 125.564 62.5893 124.966 62.824C124.369 63.048 123.718 63.16 123.014 63.16ZM130.273 63V51.8H134.657C135.308 51.8 135.894 51.9547 136.417 52.264C136.95 52.5627 137.372 52.9733 137.681 53.496C137.99 54.0187 138.145 54.6107 138.145 55.272C138.145 55.8907 137.996 56.4507 137.697 56.952C137.398 57.4533 136.993 57.8533 136.481 58.152C135.969 58.44 135.393 58.584 134.753 58.584H131.521V63H130.273ZM137.105 63L134.289 58.072L135.489 57.656L138.593 63H137.105ZM131.521 57.368H134.865C135.26 57.368 135.606 57.2773 135.905 57.096C136.204 56.9147 136.438 56.6693 136.609 56.36C136.78 56.04 136.865 55.6773 136.865 55.272C136.865 54.8347 136.764 54.4453 136.561 54.104C136.358 53.7627 136.076 53.496 135.713 53.304C135.361 53.112 134.956 53.016 134.497 53.016H131.521V57.368ZM140.836 63V51.8H147.62V53.016H142.084V61.784H147.588V63H140.836ZM141.412 57.848V56.632H146.724V57.848H141.412ZM153.678 63.16C153.112 63.16 152.579 63.08 152.078 62.92C151.576 62.76 151.118 62.52 150.702 62.2C150.286 61.88 149.918 61.4853 149.598 61.016L150.462 60.056C150.963 60.7707 151.475 61.272 151.998 61.56C152.531 61.848 153.128 61.992 153.79 61.992C154.27 61.992 154.707 61.912 155.102 61.752C155.496 61.592 155.806 61.368 156.03 61.08C156.254 60.792 156.366 60.4613 156.366 60.088C156.366 59.8427 156.323 59.624 156.238 59.432C156.163 59.24 156.046 59.0693 155.886 58.92C155.726 58.7707 155.528 58.6373 155.294 58.52C155.059 58.4027 154.787 58.296 154.478 58.2C154.179 58.104 153.843 58.008 153.47 57.912C152.926 57.784 152.446 57.6347 152.03 57.464C151.624 57.2827 151.278 57.064 150.99 56.808C150.712 56.552 150.499 56.2587 150.35 55.928C150.211 55.5867 150.142 55.1867 150.142 54.728C150.142 54.2907 150.232 53.8853 150.414 53.512C150.606 53.1387 150.867 52.8187 151.198 52.552C151.528 52.2747 151.918 52.0613 152.366 51.912C152.814 51.7627 153.294 51.688 153.806 51.688C154.382 51.688 154.894 51.768 155.342 51.928C155.8 52.0773 156.206 52.3013 156.558 52.6C156.91 52.8987 157.214 53.256 157.47 53.672L156.59 54.536C156.366 54.184 156.11 53.88 155.822 53.624C155.544 53.368 155.235 53.176 154.894 53.048C154.563 52.9093 154.195 52.84 153.79 52.84C153.32 52.84 152.904 52.92 152.542 53.08C152.19 53.24 151.912 53.464 151.71 53.752C151.507 54.0293 151.406 54.3493 151.406 54.712C151.406 54.9787 151.454 55.2187 151.55 55.432C151.646 55.6347 151.795 55.816 151.998 55.976C152.211 56.1253 152.483 56.264 152.814 56.392C153.155 56.5093 153.56 56.6213 154.03 56.728C154.584 56.856 155.08 57.0107 155.518 57.192C155.966 57.3733 156.344 57.592 156.654 57.848C156.974 58.0933 157.214 58.3813 157.374 58.712C157.544 59.0427 157.63 59.4213 157.63 59.848C157.63 60.5093 157.464 61.0907 157.134 61.592C156.803 62.0827 156.339 62.4667 155.742 62.744C155.155 63.0213 154.467 63.16 153.678 63.16ZM163.412 63.16C162.847 63.16 162.313 63.08 161.812 62.92C161.311 62.76 160.852 62.52 160.436 62.2C160.02 61.88 159.652 61.4853 159.332 61.016L160.196 60.056C160.697 60.7707 161.209 61.272 161.732 61.56C162.265 61.848 162.863 61.992 163.524 61.992C164.004 61.992 164.441 61.912 164.836 61.752C165.231 61.592 165.54 61.368 165.764 61.08C165.988 60.792 166.1 60.4613 166.1 60.088C166.1 59.8427 166.057 59.624 165.972 59.432C165.897 59.24 165.78 59.0693 165.62 58.92C165.46 58.7707 165.263 58.6373 165.028 58.52C164.793 58.4027 164.521 58.296 164.212 58.2C163.913 58.104 163.577 58.008 163.204 57.912C162.66 57.784 162.18 57.6347 161.764 57.464C161.359 57.2827 161.012 57.064 160.724 56.808C160.447 56.552 160.233 56.2587 160.084 55.928C159.945 55.5867 159.876 55.1867 159.876 54.728C159.876 54.2907 159.967 53.8853 160.148 53.512C160.34 53.1387 160.601 52.8187 160.932 52.552C161.263 52.2747 161.652 52.0613 162.1 51.912C162.548 51.7627 163.028 51.688 163.54 51.688C164.116 51.688 164.628 51.768 165.076 51.928C165.535 52.0773 165.94 52.3013 166.292 52.6C166.644 52.8987 166.948 53.256 167.204 53.672L166.324 54.536C166.1 54.184 165.844 53.88 165.556 53.624C165.279 53.368 164.969 53.176 164.628 53.048C164.297 52.9093 163.929 52.84 163.524 52.84C163.055 52.84 162.639 52.92 162.276 53.08C161.924 53.24 161.647 53.464 161.444 53.752C161.241 54.0293 161.14 54.3493 161.14 54.712C161.14 54.9787 161.188 55.2187 161.284 55.432C161.38 55.6347 161.529 55.816 161.732 55.976C161.945 56.1253 162.217 56.264 162.548 56.392C162.889 56.5093 163.295 56.6213 163.764 56.728C164.319 56.856 164.815 57.0107 165.252 57.192C165.7 57.3733 166.079 57.592 166.388 57.848C166.708 58.0933 166.948 58.3813 167.108 58.712C167.279 59.0427 167.364 59.4213 167.364 59.848C167.364 60.5093 167.199 61.0907 166.868 61.592C166.537 62.0827 166.073 62.4667 165.476 62.744C164.889 63.0213 164.201 63.16 163.412 63.16Z" fill="black"/>
<path d="M63.5 15C63.5 6.99187 69.9919 0.5 78 0.5H104.5V27C104.5 35.0081 98.0081 41.5 90 41.5H63.5V15Z" stroke="black"/>
</svg>
