<!DOCTYPE svg PUBLIC "-//W3C//DTD SVG 1.1//EN" "http://www.w3.org/Graphics/SVG/1.1/DTD/svg11.dtd">

<!-- Uploaded to: SVG Repo, www.svgrepo.com, Transformed by: SVG Repo Mixer Tools -->
<svg height="800px" width="800px" version="1.1" id="Layer_1" xmlns="http://www.w3.org/2000/svg" xmlns:xlink="http://www.w3.org/1999/xlink" viewBox="0 0 512 512" xml:space="preserve" fill="#000000">

<g id="SVGRepo_bgCarrier" stroke-width="0"/>

<g id="SVGRepo_tracerCarrier" stroke-linecap="round" stroke-linejoin="round"/>

<g id="SVGRepo_iconCarrier"> <path style="fill:#22bb33595959;" d="M455.235,442.356c0,5.533-4.484,10.017-10.017,10.017H66.783c-5.533,0-10.017-4.484-10.017-10.017 c0-5.533,4.484-10.017,10.017-10.017h179.204V79.662H66.783c-5.533,0-10.017-4.484-10.017-10.017 c0-5.533,4.484-10.017,10.017-10.017h378.435c5.533,0,10.017,4.484,10.017,10.017c0,5.533-4.484,10.017-10.017,10.017H266.022 v352.677h179.196C450.75,432.338,455.235,436.823,455.235,442.356z"/> <path style="fill:#22bb33;" d="M284.76,401.404v40.952v40.952c0,15.782-12.94,28.692-28.757,28.692H256 c-15.822,0-28.759-12.91-28.759-28.692v-40.952v-40.952c0-15.782,12.937-28.692,28.759-28.692h0.003 C271.821,372.711,284.76,385.623,284.76,401.404z M256.004,108.967c21.767,0,39.413-17.605,39.413-39.323 S277.77,30.32,256.004,30.32c-21.769,0-39.416,17.605-39.416,39.324C216.588,91.362,234.236,108.967,256.004,108.967z"/> <path style="fill:#22bb335B7F99;" d="M101.694,23.371v92.546c0,12.855-10.537,23.372-23.422,23.372H56.822 c-12.885,0-23.431-10.517-23.431-23.372V23.371C33.391,10.517,43.937,0,56.822,0h21.449C91.156,0,101.694,10.517,101.694,23.371z M455.184,0h-21.449c-12.89,0-23.427,10.517-23.427,23.371v92.546c0,12.855,10.537,23.372,23.427,23.372h21.449 c12.885,0,23.425-10.517,23.425-23.372V23.371C478.609,10.517,468.068,0,455.184,0z M78.271,372.711H56.822 c-12.885,0-23.431,10.517-23.431,23.372v92.546c0,12.853,10.546,23.371,23.431,23.371h21.449c12.885,0,23.422-10.517,23.422-23.371 v-92.546C101.694,383.229,91.156,372.711,78.271,372.711z M455.184,372.711h-21.449c-12.89,0-23.427,10.517-23.427,23.372v92.546 c0,12.855,10.537,23.371,23.427,23.371h21.449c12.885,0,23.425-10.517,23.425-23.371v-92.546 C478.609,383.229,468.068,372.711,455.184,372.711z"/> <path style="fill:#22bb33415E70;" d="M101.694,23.372v92.546c0,12.855-10.538,23.371-23.422,23.371H67.544V0h10.729 C91.156,0,101.694,10.517,101.694,23.372z M78.271,372.711H67.543V512h10.729c12.885,0,23.422-10.517,23.422-23.371v-92.546 C101.694,383.229,91.156,372.711,78.271,372.711z M433.729,0c-12.885,0-23.422,10.517-23.422,23.372v92.546 c0,12.855,10.538,23.371,23.422,23.371h10.729V0H433.729z M410.306,396.083v92.546c0,12.855,10.538,23.371,23.422,23.371h10.729 V372.711h-10.729C420.844,372.711,410.306,383.229,410.306,396.083z"/> </g>

</svg>