<svg width="47" height="48" viewBox="0 0 47 48" fill="none" xmlns="http://www.w3.org/2000/svg">
<path d="M38.5351 7.4834V19.0893L44.5806 24.9296L44.7486 25.0882L38.5351 31.0871V39.3717H29.9147L23.8225 45.3332L23.6546 45.1746L17.7117 39.3717H9.09121V31.0777L2.87778 25.0788L3.0457 24.9203L9.03523 19.08V7.4834C6.55141 9.54369 4.5404 12.1147 3.13897 15.0216C1.09488 19.2247 0.427359 23.965 1.23127 28.5691C2.03519 33.1732 4.26964 37.4068 7.61713 40.6685C11.9378 44.9089 17.75 47.2845 23.8039 47.2845C29.8577 47.2845 35.6698 44.9089 39.9905 40.6685C43.342 37.4095 45.58 33.1762 46.3857 28.5714C47.1914 23.9666 46.5238 19.225 44.478 15.0216C43.0498 12.116 41.021 9.54661 38.5258 7.4834" fill="#00471C"/>
<path fill-rule="evenodd" clip-rule="evenodd" d="M30.1945 36.9831C29.0236 36.9107 27.8482 36.986 26.696 37.207C26.7519 37.0484 26.7986 36.8338 26.8639 36.6659C27.403 36.495 27.9699 36.4285 28.5339 36.4699H28.2073C28.0581 36.33 27.1718 36.1154 26.9385 35.9475L26.2388 35.7142C26.2388 35.4157 26.3041 35.1731 26.1829 34.9959C26.0444 34.7925 25.8916 34.5992 25.7257 34.4174C25.3991 34.1422 25.0876 33.8495 24.7928 33.5405C24.5491 33.2854 24.3952 32.9579 24.3542 32.6075C24.356 32.416 24.3779 32.2253 24.4196 32.0384C24.6808 31.5906 24.7554 31.6932 24.9327 31.5346C25.1099 31.376 25.3059 31.432 25.4831 31.3574C25.363 31.5762 25.2257 31.7852 25.0726 31.9824C25.0726 32.3556 25.0726 32.3183 25.1566 32.4302C25.2405 32.5422 25.2779 32.5049 25.4365 32.4302C25.688 32.0353 25.8857 31.6087 26.0243 31.1614C26.0243 31.0775 26.0243 31.0495 26.0243 30.9655C26.1642 30.8909 25.8656 31.0401 25.6977 30.8442C25.5578 30.8442 25.3525 30.9842 25.2779 30.9282C25.0166 30.5644 25.0633 30.639 25.1193 30.4058C25.1753 30.1725 25.4365 30.2658 25.8283 30.1912C25.8644 30.1052 25.9199 30.0287 25.9904 29.9676C26.0609 29.9066 26.1445 29.8626 26.2348 29.8391C26.325 29.8157 26.4195 29.8134 26.5108 29.8323C26.6022 29.8513 26.6878 29.8911 26.7613 29.9486C26.9665 30.0232 27.0505 30.3684 27.0692 30.5923V30.8162V32.0664C26.7749 32.2561 26.508 32.4852 26.2761 32.7474C26.2337 32.931 26.2118 33.1188 26.2108 33.3072L26.2948 33.5871L26.5747 33.5125C26.546 33.2864 26.5815 33.0569 26.6773 32.8501L26.9479 32.5515C27.072 32.4558 27.2066 32.3744 27.349 32.309L27.5729 32.2436C27.5729 31.8331 27.5729 31.4133 27.5729 31.0028C27.5787 30.6237 27.446 30.2556 27.1997 29.9673C27.0403 29.7781 26.8298 29.6388 26.5934 29.5661C26.4471 29.5197 26.2973 29.4853 26.1455 29.4635C25.9416 29.4805 25.7409 29.5244 25.5485 29.5941C25.2592 29.706 25.1846 29.8646 25.0073 30.0139C24.9083 30.1755 24.8359 30.3519 24.7928 30.5364C24.7605 30.7591 24.7605 30.9853 24.7928 31.2081C24.6256 31.0367 24.5065 30.8243 24.4476 30.5923C24.3916 30.3871 24.3916 30.4244 24.4476 30.0419C24.5479 29.7912 24.6969 29.5629 24.886 29.3702C25.0249 29.2175 25.202 29.1048 25.3991 29.0436C25.6178 28.9537 25.8533 28.9123 26.0895 28.9223C26.2904 28.9201 26.4909 28.9421 26.6866 28.9877C26.8571 29.0192 27.0211 29.0791 27.1718 29.1649C27.4095 29.2812 27.6122 29.4582 27.7595 29.678C27.9006 29.8857 28.0047 30.1161 28.0674 30.3591C28.1613 30.6187 28.1963 30.8959 28.17 31.1708V32.2063C28.2751 32.1896 28.3821 32.1896 28.4872 32.2063L28.6459 32.3743L28.7671 32.5795L29.0564 32.8501C29.2989 33.1206 29.7094 33.1486 29.9893 33.5498C30.0298 33.6677 30.0298 33.7957 29.9893 33.9136L29.6441 34.2308C29.5927 34.2642 29.5327 34.2819 29.4715 34.2819C29.4102 34.2819 29.3503 34.2642 29.2989 34.2308C29.1869 34.1469 29.2149 33.9883 29.103 33.9043C28.7674 33.885 28.431 33.885 28.0954 33.9043L28.254 34.1656L28.6551 34.4268L29.047 34.7253L29.5321 35.1545C29.84 35.3877 30.2878 35.6396 30.3811 35.8262L30.4371 35.9475C30.5864 36.1247 30.2878 36.7311 30.2785 36.8804M29.5042 32.3556L28.5246 25.9835L29.4575 25.853L30.2505 25.1532L29.6908 25.0133C29.3199 25.0781 28.9725 25.2389 28.6832 25.4797V24.9573L30.1945 18.2867L30.2971 15.6278L29.8587 16.1036L29.7467 18.2307L28.0021 25.4051C27.9368 25.4798 27.7409 26.0395 27.6755 26.1142V25.3118L28.8604 20.4418L29.3549 18.5759L29.5415 16.0756C29.5739 15.9024 29.6338 15.7355 29.7187 15.5811L30.2598 15.0121C30.173 14.5164 30.1418 14.0126 30.1666 13.51C30.1666 13.1741 30.2785 12.8942 30.2971 12.577L30.661 11.1123L31.5007 9.2464L29.9706 10.4499L29.8027 10.5059L30.1386 5.56126L30.8569 4.26445L30.3531 1.52157L29.2336 4.04055L29.6161 5.54259L29.2149 11.5415C29.131 11.8214 29.0097 11.9613 28.9257 12.2412C28.4872 13.3421 28.7205 15.889 28.6459 17.1392L28.2354 19.4063L26.3695 26.1888C26.2855 26.2634 26.2202 26.2728 26.1362 26.1888L25.9216 25.1439L25.2219 19.1917V17.3258L25.2965 13.3794C25.0633 12.2319 24.7554 11.0657 24.5408 9.92747V9.12511C24.6621 9.21841 24.8301 9.67556 24.9513 9.76885L25.8003 13.5007C25.713 14.0091 25.7321 14.53 25.8563 15.0307C26.0242 15.3199 26.1828 15.5345 26.3508 15.8237V17.0645C26.3508 17.7736 26.3508 18.7345 26.3508 19.4436L26.8266 23.0727C27.0038 22.457 27.1065 21.4961 27.2744 20.8803C27.1166 20.021 27.0262 19.1508 27.0039 18.2774L27.1251 17.1765C27.2091 16.8406 27.2464 16.5887 27.3304 16.2435C27.4556 15.5902 27.4556 14.919 27.3304 14.2657C27.0977 13.5216 26.9659 12.7497 26.9385 11.9706L26.8732 10.7671L27.2557 5.85979L28.1887 3.99388L27.5636 1.41896L26.4067 3.91926L26.7892 5.78516C26.6586 7.51112 26.5094 9.20908 26.3135 10.935C26.1362 10.935 26.0989 10.9351 25.9683 10.7391L23.8505 0.980469L21.7327 10.7391C21.5927 10.9164 21.5554 10.8977 21.3781 10.935C21.1822 9.20908 21.0329 7.51112 20.9117 5.78516L21.2849 3.91926L20.1373 1.49358L19.5216 4.06854L20.4545 5.93444L20.8277 10.8418L20.7717 12.0453C20.7352 12.8234 20.6036 13.5942 20.3799 14.3403C20.2392 14.9907 20.2234 15.6619 20.3332 16.3182C20.4079 16.6634 20.4452 16.9153 20.5292 17.2511L20.6505 18.352C20.6374 19.226 20.5468 20.097 20.3799 20.955C20.5571 21.5707 20.6598 22.5316 20.8277 23.1474L21.3035 19.5182C21.3035 18.8092 21.3035 17.8482 21.3035 17.1392V15.8983C21.4715 15.6091 21.6207 15.3946 21.7886 15.1053C21.9128 14.6047 21.9319 14.0837 21.8446 13.5753L22.703 9.8435C22.8149 9.75021 22.9828 9.29306 23.1041 9.19977V10.0021C22.8895 11.1403 22.5816 12.3065 22.3577 13.454L22.423 17.4004V19.2663L21.7327 25.2185L21.5181 26.2635C21.4341 26.3381 21.3688 26.3288 21.2849 26.2635L19.419 19.4809L18.9991 17.2138C18.9338 15.9637 19.1577 13.4167 18.7192 12.3158C18.6446 12.0359 18.514 11.896 18.4394 11.6161L18.0382 5.61724L18.4207 4.11517L17.3011 1.59622L16.7974 4.3391L17.5064 5.63589L17.8423 10.5805L17.6743 10.5245L16.1443 9.34904L16.984 11.2149L17.3478 12.6797C17.3478 13.0155 17.4598 13.2954 17.4877 13.6126C17.5094 14.1156 17.475 14.6194 17.3851 15.1147L17.9355 15.6838C18.0166 15.8399 18.0762 16.0062 18.1128 16.1783L18.2994 18.6786L18.7939 20.5445L19.9694 25.4145V26.2168C19.9041 26.1422 19.6988 25.5824 19.6335 25.5078L18.0102 18.3334L17.8982 16.2062L17.4597 15.7304L17.5531 18.3893L19.0644 25.0599V25.5824C18.7775 25.3434 18.4336 25.1827 18.0662 25.1159L17.5064 25.2558L18.2901 25.9556L19.223 26.0862L18.2901 32.4582L18.7565 32.2436C19.0215 31.9983 19.193 31.6685 19.2417 31.3107C19.2955 30.782 19.4243 30.2637 19.6242 29.7713C19.7543 29.4826 19.952 29.2294 20.2004 29.033C20.4488 28.8365 20.7407 28.7026 21.0516 28.6425C21.4972 28.5732 21.9532 28.631 22.3675 28.8093C22.7817 28.9875 23.1373 29.2789 23.3933 29.65L23.6079 30.1445C23.6371 30.3735 23.6526 30.6041 23.6545 30.8349H24.1676C24.1759 30.5944 24.1977 30.3546 24.233 30.1165C24.4141 29.611 24.7682 29.1857 25.2325 28.916C25.6969 28.6462 26.2417 28.5494 26.7706 28.6425C27.2221 28.7319 27.6313 28.9678 27.935 29.3136C28.2386 29.6594 28.4196 30.0958 28.4499 30.555C28.5152 30.9562 28.5525 31.4133 28.6085 31.7305C28.7225 31.9076 28.8642 32.0651 29.0283 32.197L29.5042 32.3556ZM22.0405 15.7211V20.2739L21.4341 25.2838L21.1915 23.1847L22.0405 15.7211ZM25.7724 15.8983V20.4512L26.3881 25.4611L26.6306 23.362L25.7724 15.8983ZM17.4971 36.9084C18.6669 36.8269 19.8423 36.8927 20.9956 37.1043C20.9397 36.9457 20.893 36.7311 20.8277 36.5632C20.2885 36.3928 19.7217 36.3264 19.1577 36.3673H19.4843C19.6335 36.2274 20.5198 36.0128 20.7437 35.8449L21.4528 35.6116C21.4528 35.3131 21.3875 35.0705 21.5088 34.8932C21.6472 34.6898 21.8 34.4965 21.9659 34.3148C22.2925 34.0396 22.604 33.7468 22.8988 33.4379C23.1425 33.1828 23.2964 32.8553 23.3374 32.5049C23.3357 32.3134 23.3138 32.1227 23.272 31.9358C23.0108 31.488 22.9362 31.5906 22.7589 31.432C22.5817 31.2734 22.3764 31.3294 22.2085 31.2547C22.3286 31.4736 22.4659 31.6826 22.619 31.8798C22.619 32.253 22.6189 32.2157 22.535 32.3276C22.451 32.4396 22.4137 32.4023 22.2551 32.3276C22.0036 31.9327 21.8059 31.506 21.6673 31.0588C21.6673 30.9748 21.6673 30.9469 21.6673 30.8629C21.5274 30.7883 21.826 30.9375 21.9846 30.7416C22.1338 30.7416 22.3391 30.8815 22.4137 30.8256C22.6749 30.4617 22.6283 30.5364 22.5723 30.3031C22.5164 30.0699 22.2551 30.1632 21.8633 30.0885C21.8272 30.0025 21.7717 29.9261 21.7012 29.865C21.6307 29.804 21.547 29.76 21.4568 29.7365C21.3665 29.7131 21.2721 29.7107 21.1808 29.7297C21.0895 29.7487 21.0038 29.7885 20.9303 29.846C20.7251 29.9206 20.6411 30.2658 20.6224 30.4897V30.7136V31.9638C20.9167 32.1534 21.1836 32.3826 21.4155 32.6448C21.4579 32.8284 21.4797 33.0162 21.4807 33.2046L21.3968 33.4845L21.1169 33.4098C21.1405 33.1839 21.1051 32.9557 21.0143 32.7474L20.7437 32.4489C20.6178 32.3508 20.4799 32.2693 20.3332 32.2063L20.1187 32.141C20.1187 31.7305 20.1187 31.3107 20.1187 30.9002C20.1129 30.5211 20.2456 30.1529 20.4918 29.8646C20.6512 29.6754 20.8618 29.5361 21.0983 29.4635C21.2445 29.417 21.3942 29.3827 21.5461 29.3608C21.75 29.3779 21.9507 29.4218 22.1432 29.4915C22.423 29.6034 22.4977 29.762 22.6843 29.9113C22.7833 30.0728 22.8557 30.2492 22.8988 30.4337C22.9311 30.6565 22.9311 30.8827 22.8988 31.1055C23.0627 30.9317 23.1812 30.7202 23.244 30.4897C23.3 30.2845 23.3 30.3218 23.244 29.9393C23.1437 29.6886 22.9947 29.4603 22.8056 29.2676C22.6667 29.1149 22.4896 29.0021 22.2925 28.941C22.0736 28.8519 21.8382 28.8106 21.602 28.8197C21.4011 28.8171 21.2006 28.839 21.005 28.885C20.834 28.9149 20.6698 28.9749 20.5198 29.0623C20.2821 29.1786 20.0794 29.3556 19.9321 29.5754C19.7911 29.7831 19.6869 30.0135 19.6242 30.2565C19.5303 30.5161 19.4953 30.7933 19.5216 31.0681V32.1037C19.4165 32.087 19.3095 32.087 19.2044 32.1037L19.0458 32.2717L18.9245 32.4769L18.6353 32.7474C18.3834 33.018 17.9822 33.046 17.7023 33.4472C17.6656 33.5657 17.6656 33.6925 17.7023 33.811L18.0568 34.1282C18.1082 34.1616 18.1682 34.1793 18.2294 34.1793C18.2907 34.1793 18.3506 34.1616 18.402 34.1282C18.514 34.0443 18.486 33.8857 18.598 33.8017C18.9304 33.7824 19.2637 33.7824 19.5962 33.8017L19.4469 34.0629L19.0458 34.3241L18.6539 34.6227L18.1688 35.0518C17.8609 35.2851 17.4131 35.537 17.3198 35.7236L17.2638 35.8449C17.0772 36.2087 17.3944 36.8524 17.4037 37.011L17.4971 36.9084Z" fill="#9A7500"/>
</svg>
