<!DOCTYPE svg PUBLIC "-//W3C//DTD SVG 1.1//EN" "http://www.w3.org/Graphics/SVG/1.1/DTD/svg11.dtd">
<!-- Uploaded to: SVG Repo, www.svgrepo.com, Transformed by: SVG Repo Mixer Tools -->
<svg fill="#22bb33" width="800px" height="800px" viewBox="0 0 32 32" version="1.1" xmlns="http://www.w3.org/2000/svg" stroke="#22bb33" stroke-width="0.00032">
<g id="SVGRepo_bgCarrier" stroke-width="0"/>
<g id="SVGRepo_tracerCarrier" stroke-linecap="round" stroke-linejoin="round"/>
<g id="SVGRepo_iconCarrier"> <title>battery-white</title> <path d="M14.125 1c-1.558 0-2.813 0.836-2.813 1.875v0.937h-2.813c-1.847 0-3.75 1.904-3.75 3.75v19.688c0 1.847 1.904 3.75 3.75 3.75h15c1.847 0 3.75-1.904 3.75-3.75v-19.688c0-1.847-1.904-3.75-3.75-3.75h-2.813v-0.937c0-1.038-1.254-1.875-2.813-1.875h-3.75zM8.5 7.563h15v19.688h-15v-19.688zM16 9.437v6.562h-4.688l4.688 9.375v-6.562h4.688l-4.688-9.375z"/> </g>
</svg>